<?xml version="1.0" encoding="UTF-8"?>
<svg id="Layer_1" data-name="Layer 1" xmlns="http://www.w3.org/2000/svg" viewBox="0 0 622.44 124.72">
  <defs>
    <style>
      .cls-1 {
        stroke: #000;
        stroke-miterlimit: 10;
        stroke-width: 26px;
      }

      .cls-1, .cls-2 {
        fill: none;
      }
    </style>
  </defs>
  <g>
    <path d="M85.51,58.09c9.26-5.63,14.52-13.8,14.52-24.88,0-25.4-19.97-31.21-46.65-31.21H0v120.54h55.55c29.6,0,49.39-9.98,49.39-37.21,0-14.89-8.17-23.06-19.43-27.24ZM28.87,27.53h31.5c5.8,0,10.5,4.7,10.5,10.5,0,2.9-1.17,5.53-3.07,7.43-1.9,1.9-4.53,3.07-7.43,3.07h-31.5v-21ZM71.35,92.99c-2.08,2.08-4.95,3.37-8.13,3.37H28.72v-23h34.5c6.35,0,11.5,5.15,11.5,11.5,0,3.18-1.29,6.05-3.37,8.13Z"/>
    <path d="M289.75,50.1l-16.7-3.63c-8.53-1.82-13.98-5.81-13.98-11.97,0-6.54,7.99-9.81,18.7-9.81s18.57,3.62,22.56,9.81h30.63C325.7,10.89,303.73,0,279.4,0c-22.69,0-50.1,10.71-50.1,35.95,0,22.32,18.15,31.21,37.21,35.39l14.89,3.28c11.98,2.53,22.33,6.16,22.33,13.97,0,8.54-10.35,11.43-20.33,11.43-13.56,0-22.92-4.89-27.2-14.33h-30.17c5.44,24.51,25.05,39.03,57.19,39.03,23.78,0,50.47-12.7,50.47-39.39,0-24.87-25.06-31.24-43.94-35.23Z"/>
    <path d="M344.76,2v120.54h28.87V2h-28.87Z"/>
    <path d="M496.85,118.89h0s-27.72-45.55-27.72-45.55c13.98-5.26,23.78-15.43,23.78-33.58,0-30.32-23.78-37.76-55.55-37.76h-45.21v120.54h28.87v-44.29h18.16l26.14,44.29h33.77l-2.23-3.65ZM438.26,52.83h-17.25v-25.42h17.25c13.61,0,24.14,1.46,24.14,12.71s-10.53,12.71-24.14,12.71Z"/>
    <g>
      <path d="M214.54,47.96v74.59s-28.87,0-28.87,0V47.97c0-10.55-8.55-19.1-19.1-19.1h0c-10.55,0-19.1,8.55-19.1,19.1v74.58h-28.87V47.96c0-26.49,21.47-47.96,47.96-47.96h0c26.49,0,47.96,21.47,47.96,47.96Z"/>
      <path class="cls-1" d="M131.84,76.56c10.78-3.69,22.34-5.7,34.38-5.7,10.98,0,21.56,1.67,31.52,4.77"/>
    </g>
    <g>
      <path d="M576.15,2h-31.59l-44.72,116.88-1.4,3.66h30.69l30.95-88.45,30.96,88.45h31.4L576.15,2Z"/>
      <path class="cls-1" d="M527.84,84.56c10.78-3.69,22.34-5.7,34.38-5.7,10.98,0,21.56,1.67,31.52,4.77"/>
    </g>
  </g>
  <path class="cls-2" d="M11.5,58.77h.08v.09"/>
  <path class="cls-2" d="M11.52,122.77c0,.18,0,.27-.02.27"/>
</svg>