<?xml version="1.0" encoding="UTF-8"?>
<svg id="Layer_1" data-name="Layer 1" xmlns="http://www.w3.org/2000/svg" viewBox="0 0 223.46 225.08">
  <defs>
    <style>
      .cls-1 {
        fill: none;
      }
    </style>
  </defs>
  <path class="cls-1" d="M111.74,112.4c-.01.18-.01.27-.02.27"/>
  <g>
    <g>
      <path d="M144.24,177.68v43.25s-.09.03-.13.04c-.61.19-1.24.36-1.86.54-.11.03-.2.06-.31.09-.17.05-.35.1-.52.15-.55.15-1.1.3-1.66.44-.84.21-1.69.42-2.53.61-.79.18-1.59.35-2.38.52-.75.16-1.5.3-2.25.44l-.12.02s-.03.01-.05.01c-.79.15-1.58.28-2.38.42h-.03c-.11.02-.22.03-.32.05-.6.1-1.2.19-1.81.28-.19.03-.38.05-.56.07-.07.01-.15.02-.22.03-.54.08-1.08.15-1.62.21h-.02c-.1.01-.2.03-.3.04v-47.21c0-6.97-5.65-12.62-12.62-12.62-3.48,0-6.64,1.41-8.92,3.69-2.28,2.29-3.7,5.44-3.7,8.93v47.4c-1.57-.16-3.13-.35-4.68-.57-.12-.01-.24-.03-.36-.05-.75-.11-1.5-.23-2.25-.36-.8-.13-1.6-.28-2.39-.43-.04,0-.08-.01-.11-.02-.69-.13-1.39-.27-2.08-.42-.23-.05-.46-.1-.69-.15-.59-.13-1.18-.26-1.77-.4,0,0-.01,0-.02,0-.07-.01-.14-.03-.21-.05-.72-.17-1.45-.35-2.17-.54l-.08-.02c-.76-.2-1.51-.4-2.27-.61v-43.78c0-17.51,14.19-31.71,31.7-31.71,8.76,0,16.68,3.55,22.42,9.29,5.74,5.74,9.29,13.67,9.29,22.42Z"/>
      <path d="M147.5,120.58l-10.44,18.08,48.48,59.73s.03-.03.05-.04c.5-.43.99-.86,1.48-1.29.05-.05.09-.09.14-.13.56-.49,1.1-.98,1.64-1.49.53-.49,1.06-.98,1.57-1.49.03-.03.06-.05.09-.09.03-.03.05-.05.08-.08.06-.06.12-.11.18-.17.43-.4.85-.83,1.27-1.24.48-.48.96-.97,1.43-1.45.06-.07.12-.13.18-.2.11-.1.2-.2.29-.3.54-.56,1.07-1.14,1.6-1.71.57-.62,1.13-1.25,1.69-1.89.43-.49.86-.98,1.28-1.49.05-.07.11-.13.16-.19.05-.06.11-.13.16-.19.02-.02.04-.04.05-.06l-38.31-44.52.17.03h0s57.62,10.89,57.62,10.89c.03-.07.06-.15.09-.23.24-.67.49-1.36.72-2.04.26-.73.5-1.48.75-2.22.01-.06.03-.12.05-.18.02-.07.04-.13.06-.19.18-.56.36-1.12.52-1.69.07-.21.13-.42.19-.63.16-.55.32-1.1.47-1.65.07-.24.13-.48.2-.72.01-.03.02-.07.03-.1.17-.61.33-1.23.48-1.85.07-.26.13-.52.19-.77.13-.54.26-1.09.39-1.64.36-1.59.69-3.19.98-4.8l-75.95-12.02Z"/>
      <path d="M222.14,85.17l-38.14,22.02c-15.17,8.75-34.56,3.56-43.31-11.61-2.88-4.99-4.25-10.44-4.25-15.82,0-10.96,5.68-21.62,15.86-27.49l38.28-22.1c.49.47.98.95,1.45,1.42.22.22.44.44.65.65.09.09.18.18.27.28.05.05.09.09.13.14.25.25.5.51.75.77.04.03.07.07.11.11.38.39.75.79,1.12,1.19.5.53.99,1.07,1.47,1.61s.96,1.08,1.43,1.64c.3.36.61.72.92,1.08.03.04.07.09.11.13l.08.1c.2.25.42.5.63.76h.01c.28.35.56.69.82,1.03.22.27.43.54.64.81.27.34.54.69.81,1.04.48.62.95,1.24,1.41,1.88l-41.54,23.98c-6.04,3.48-8.11,11.2-4.62,17.25,2.34,4.05,6.58,6.31,10.94,6.31,2.14,0,4.31-.55,6.3-1.69l41.5-23.96c.33.77.65,1.54.97,2.31.28.71.57,1.41.84,2.13,0,0,0,0,0,.01,0,.02.01.03.02.05.22.56.43,1.12.63,1.69.07.2.15.4.22.6.01.03.03.07.04.11.23.63.45,1.28.67,1.92.03.08.05.16.08.24.26.77.51,1.54.75,2.32.01.03.02.07.03.1.22.74.45,1.49.67,2.24.22.79.44,1.57.65,2.37.18.71.37,1.43.55,2.15.02.07.04.15.05.22Z"/>
      <path d="M149.83,4.87c-.54-.19-1.09-.38-1.64-.57-.03,0-.06-.02-.09-.03-.24-.09-.49-.17-.73-.24-.58-.19-1.15-.38-1.73-.56-.02,0-.05-.01-.07-.02-.75-.24-1.51-.46-2.27-.68-.03,0-.06-.02-.09-.03-.6-.17-1.2-.34-1.81-.5-.16-.05-.32-.09-.48-.13-.08-.02-.17-.05-.24-.07-.65-.17-1.32-.34-1.98-.5,0,0-.01,0-.03,0-.73-.18-1.47-.35-2.2-.52-.18-.04-.37-.08-.55-.12-.62-.14-1.25-.26-1.88-.4-.02,0-.04,0-.05,0-.04,0-.07-.01-.11-.02-.71-.14-1.41-.28-2.13-.4-.03,0-.05-.01-.08-.01l-19.85,56.73-.05-.16h0S91.96,0,91.96,0c-.03,0-.05,0-.08.01-.78.14-1.56.28-2.34.44-.68.13-1.37.27-2.05.42-.24.05-.49.11-.73.16-.52.12-1.04.24-1.57.36h0s-.08.02-.12.03l-.48.12c-.1.02-.2.05-.29.07-.04,0-.08.02-.12.03-.52.13-1.04.26-1.57.4l-.08.02c-.22.06-.44.12-.67.18-.59.16-1.18.32-1.77.5-.13.04-.27.08-.4.12-.58.17-1.16.34-1.74.52-.12.04-.24.07-.36.11-.63.2-1.27.4-1.9.61-.17.06-.35.12-.53.18-.67.22-1.34.46-2,.7l28.05,73.03h20.88L150.05,4.95l-.22-.08Z"/>
      <path d="M82.97,96.39c-5.87,10.17-16.52,15.86-27.48,15.86-5.38,0-10.83-1.37-15.82-4.26L1.01,85.68c.57-2.4,1.21-4.77,1.93-7.1.24-.78.48-1.55.74-2.33.51-1.55,1.05-3.07,1.63-4.59,0-.03.02-.05.03-.07.28-.73.57-1.46.86-2.18.3-.75.61-1.49.93-2.23l42.08,24.29c6.04,3.48,13.76,1.41,17.24-4.62,1.14-1.99,1.69-4.16,1.69-6.3,0-4.36-2.27-8.6-6.31-10.94l-42.22-24.38c.04-.05.08-.11.12-.17.38-.52.76-1.03,1.15-1.54.6-.8,1.22-1.59,1.84-2.37.39-.5.79-.99,1.2-1.48.05-.07.11-.14.17-.2.52-.63,1.04-1.24,1.57-1.86,0,0,.01-.01.01-.02.53-.61,1.06-1.2,1.59-1.8.55-.6,1.1-1.2,1.65-1.78.46-.48.91-.96,1.37-1.43.14-.15.28-.28.42-.42.5-.51,1-1,1.51-1.51.03-.03.07-.07.11-.1l39.04,22.54c15.16,8.76,20.36,28.14,11.6,43.31Z"/>
      <path d="M77.04,121.29L0,133.58c.14.73.28,1.45.44,2.16.04.18.08.36.12.55.15.67.29,1.32.45,1.98.18.77.38,1.55.58,2.32.2.77.4,1.53.62,2.29.2.72.41,1.44.63,2.15.02.07.04.13.06.2.22.73.46,1.47.69,2.19.24.75.5,1.49.76,2.24.26.74.53,1.48.81,2.21l58.66-11.1-.11.13h.01l-38.59,44.83s.07.09.11.13c.44.52.89,1.04,1.34,1.55.01.01.02.03.03.03.5.56,1,1.12,1.51,1.67.41.44.81.88,1.23,1.31.15.16.3.32.46.48.48.5.96.98,1.45,1.47.61.61,1.23,1.22,1.86,1.81.03.03.06.07.09.09,1.22,1.16,2.47,2.3,3.73,3.4.65.57,1.31,1.13,1.98,1.69l48.57-60-10.44-18.08Z"/>
    </g>
    <polygon points="122.71 92.82 100.57 92.82 89.51 111.99 100.57 131.16 122.71 131.16 133.77 111.99 122.71 92.82"/>
    <g>
      <rect x="92.01" y="92.36" width="39.26" height="39.26" transform="translate(223.28 223.98) rotate(180)"/>
      <rect x="92.01" y="92.36" width="39.26" height="39.26" transform="translate(111.39 270.12) rotate(-135)"/>
    </g>
  </g>
</svg>