<?xml version="1.0" encoding="UTF-8"?>
<svg id="Layer_1" data-name="Layer 1" xmlns="http://www.w3.org/2000/svg" viewBox="0 0 767.3 150">
  <defs>
    <style>
      .cls-1 {
        fill: #231f20;
      }
    </style>
  </defs>
  <path class="cls-1" d="M0,147.29V2.49h63.84c38.89,0,55.48,10.85,55.48,36.29,0,12.31-5.67,21.99-16.85,28.79l-4.39,2.67,4.81,1.79c15.16,5.63,22.52,15.93,22.52,31.52,0,29.44-19.26,43.75-58.88,43.75H0ZM30.72,119.73h45.35c4.48,0,8.69-1.75,11.86-4.92,3.17-3.17,4.92-7.38,4.92-11.86,0-9.25-7.52-16.77-16.77-16.77H30.72v33.55ZM30.9,60.3h41.63c4.16,0,8.06-1.61,10.99-4.54,2.93-2.93,4.54-6.84,4.54-10.99,0-8.56-6.97-15.53-15.53-15.53H30.9v31.06Z"/>
  <path class="cls-1" d="M349.43,150c-36.31,0-60.29-15.42-67.89-43.53h32.76c6,11.66,18.18,17.81,35.36,17.81s27.75-6.24,27.75-16.69c0-11.91-15.02-16.69-29.72-19.79l-18.48-4.07c-30.21-6.63-44.28-19.83-44.28-41.55,0-16.79,10.52-26.65,19.35-31.97C315.05,3.73,329.78,0,344.68,0c31.57,0,54.07,14.1,60.87,37.9h-33.56c-5.69-7.77-16.28-12.19-29.34-12.19-16.11,0-25.72,5.49-25.72,14.68,0,8.5,6.87,14.64,19.34,17.3l20.74,4.51c25.48,5.38,52.64,13.46,52.64,41.35,0,30.5-30.3,46.46-60.23,46.46Z"/>
  <rect class="cls-1" x="428.38" y="2.49" width="30.9" height="144.81"/>
  <path class="cls-1" d="M577.1,147.29l-32.48-55.03h-26.47v55.03h-30.9V2.49h53.69c46.64,0,66.54,13.29,66.54,44.43,0,19.17-9.4,32.42-27.94,39.4l-2.81,1.06,36.16,59.4h.01s.31.52.31.52h-36.11ZM518.15,65.64h23.92c12.93,0,32.48,0,32.48-18.28s-20.33-18.28-32.48-18.28h-23.92v36.56Z"/>
  <polygon class="cls-1" points="733.67 147.29 693.43 32.35 653.22 147.29 620.46 147.29 675.86 2.49 711.69 2.49 767.3 147.29 733.67 147.29"/>
  <path class="cls-1" d="M230.7,147.3V57.11c0-14.45-11.76-26.2-26.22-26.2-6.99,0-13.56,2.72-18.53,7.67-4.95,4.97-7.68,11.55-7.68,18.53v90.2h-30.9V57.11c0-31.49,25.62-57.11,57.11-57.11,15.26,0,29.6,5.94,40.39,16.73,10.79,10.78,16.73,25.12,16.73,40.38v90.2h-30.9Z"/>
  <polygon class="cls-1" points="226.75 88.68 227.03 92.6 206.75 112.25 181.95 87.42 202.91 65.61 202.92 65.61 226.75 88.68"/>
</svg>