<?xml version="1.0" encoding="UTF-8"?>
<svg id="Layer_1" data-name="Layer 1" xmlns="http://www.w3.org/2000/svg" viewBox="0 0 394.85 90">
  <defs>
    <style>
      .cls-1 {
        fill: #8A3324;
      }
    </style>
  </defs>
  <g>
    <path d="M56.22,34.27c-6.06-6.14-13.76-9.21-23.08-9.21-7.88,0-14.69,2.41-20.43,7.22V4.42H0v84.07h12.71v-5.72c5.63,4.83,12.43,7.23,20.43,7.23,9.32,0,17.02-3.08,23.08-9.26,6.06-6.18,9.09-13.91,9.09-23.21s-3.03-17.12-9.09-23.26ZM46.59,72.03c-3.82,3.85-8.65,5.77-14.47,5.77s-10.66-1.94-14.52-5.82c-2.34-2.36-3.97-5.06-4.89-8.09-.6-1.97-.9-4.1-.9-6.36s.31-4.41.9-6.39c.92-3.04,2.56-5.74,4.89-8.1,3.86-3.88,8.7-5.82,14.52-5.82s10.65,1.94,14.47,5.8c3.83,3.86,5.74,8.7,5.74,14.52s-1.91,10.66-5.74,14.5Z"/>
    <path d="M184.94,84.6c-4.59,3.6-10.65,5.4-18.19,5.4s-13.59-1.92-18.16-5.77c-4.57-3.84-6.95-8.97-7.14-15.39h12.43c.15,3.17,1.45,5.62,3.89,7.36,2.44,1.74,5.59,2.6,9.43,2.6,3.51,0,6.4-.72,8.68-2.16,2.28-1.44,3.41-3.4,3.41-5.9,0-1.12-.27-2.13-.81-3.02-.54-.9-1.2-1.61-1.96-2.16-.77-.54-1.85-1.03-3.25-1.48-1.4-.45-2.65-.78-3.75-1.01-1.1-.22-2.58-.5-4.45-.84-1.9-.34-3.41-.62-4.53-.84s-2.57-.59-4.37-1.09-3.24-1.03-4.34-1.6c-1.1-.56-2.3-1.31-3.61-2.24-1.31-.93-2.32-1.97-3.05-3.11-.73-1.14-1.34-2.53-1.85-4.17-.51-1.64-.76-3.45-.76-5.43,0-5.56,2.21-10.07,6.63-13.52,4.42-3.45,10.22-5.18,17.38-5.18s12.92,1.8,17.27,5.4c4.35,3.6,6.58,8.41,6.69,14.41h-12.03c-.11-2.91-1.23-5.14-3.36-6.69-2.13-1.55-5.08-2.32-8.84-2.32-3.51,0-6.29.68-8.34,2.04-2.05,1.36-3.08,3.18-3.08,5.46,0,.9.15,1.69.45,2.38.3.69.81,1.3,1.54,1.82.73.52,1.42.95,2.07,1.29s1.62.65,2.91.95c1.29.3,2.34.53,3.16.7s2.03.38,3.64.64c6.05,1.01,10.39,2.07,13.04,3.19,6.34,2.72,9.7,7.52,10.08,14.39.04.45.06.93.06,1.46,0,6.01-2.3,10.81-6.89,14.41Z"/>
    <path d="M198.38,17.01V3.85h13.15v13.15h-13.15ZM198.61,88.49V26.58h12.71v61.91h-12.71Z"/>
    <path d="M310.85,26.54h-1.5s-1.41-.01-1.41-.01v6.42c-2.52-2.31-5.41-4.13-8.66-5.48-3.88-1.6-8.06-2.41-12.55-2.41-6.04,0-11.53,1.4-16.46,4.2s-8.79,6.67-11.59,11.62c-2.79,4.94-4.19,10.47-4.19,16.6s1.4,11.62,4.19,16.6c2.8,4.98,6.66,8.88,11.59,11.69,4.93,2.82,10.42,4.23,16.46,4.23,4.45,0,8.59-.79,12.43-2.38,3.29-1.35,6.23-3.18,8.78-5.5v6.32h12.71V26.59l-9.8-.05ZM302.15,72c-3.83,3.86-8.65,5.8-14.47,5.8s-10.66-1.94-14.5-5.8c-3.85-3.86-5.77-8.7-5.77-14.52s1.92-10.61,5.77-14.47c3.83-3.86,8.67-5.8,14.5-5.8s10.64,1.92,14.47,5.77c3.82,3.83,5.73,8.67,5.73,14.5s-1.91,10.66-5.73,14.52Z"/>
    <path d="M257.72,26.25v12.02h-6.71c-5.22,0-9.16,1.46-11.81,4.37-2.65,2.92-3.97,7.18-3.97,12.83v33.02h-12.71V26.58h12.71v6.18c4.24-4.34,9.91-6.51,17.02-6.51h5.48Z"/>
    <path d="M125.1,26.54h-1.5s-1.41-.01-1.41-.01v6.42c-2.52-2.31-5.41-4.13-8.66-5.48-3.88-1.6-8.06-2.41-12.55-2.41-6.04,0-11.53,1.4-16.46,4.2s-8.79,6.67-11.59,11.62c-2.79,4.94-4.19,10.47-4.19,16.6s1.4,11.62,4.19,16.6c2.8,4.98,6.66,8.88,11.59,11.69,4.93,2.82,10.42,4.23,16.46,4.23,4.45,0,8.59-.79,12.43-2.38,3.29-1.35,6.23-3.18,8.78-5.5v6.32h12.71V26.59l-9.8-.05ZM116.4,72c-3.83,3.86-8.65,5.8-14.47,5.8s-10.66-1.94-14.5-5.8c-3.85-3.86-5.77-8.7-5.77-14.52s1.92-10.61,5.77-14.47c3.83-3.86,8.67-5.8,14.5-5.8s10.64,1.92,14.47,5.77c3.82,3.83,5.73,8.67,5.73,14.5s-1.91,10.66-5.73,14.52Z"/>
  </g>
  <g>
    <path d="M347.59,62.7c-2.43,0-4.38-.63-5.86-1.9s-2.22-2.99-2.22-5.16h3.57c0,1.15.42,2.06,1.26,2.72.84.66,1.91.99,3.22.99,1.18,0,2.18-.29,3-.87.82-.58,1.22-1.34,1.22-2.3,0-.21-.02-.41-.06-.59s-.11-.36-.21-.51-.19-.3-.28-.43-.23-.25-.43-.37-.35-.22-.48-.31-.32-.17-.59-.27-.48-.17-.63-.22-.39-.12-.71-.21-.56-.14-.72-.18-.41-.1-.77-.19c-1.82-.44-3.13-.85-3.94-1.24-1.81-.88-2.83-2.21-3.05-4.02-.04-.28-.06-.57-.06-.87,0-1.92.67-3.42,2.02-4.51s3.17-1.63,5.47-1.63,4.12.59,5.43,1.76,1.96,2.78,1.96,4.81h-3.46c0-1.03-.38-1.84-1.13-2.43s-1.71-.87-2.87-.87-2.04.24-2.78.72-1.11,1.15-1.11,1.99c0,.32.05.61.16.87s.28.49.52.69.48.38.72.51.57.28,1,.42.8.25,1.09.33.71.18,1.25.31c1.84.46,3.17.88,3.99,1.27,1.86.91,2.93,2.26,3.19,4.08.05.33.07.67.07,1.03,0,1.38-.35,2.58-1.05,3.58-.7,1.01-1.63,1.75-2.8,2.24s-2.48.73-3.94.73Z"/>
    <path d="M373.13,40.97v3.28s-6.27,0-6.27,0v18.12h-3.51v-18.12h-6.27v-3.28h16.05Z"/>
    <path d="M387.96,61.71c-1.3.71-2.77,1.06-4.39,1.06s-3.09-.35-4.4-1.06-2.34-1.7-3.08-2.99c-.75-1.28-1.12-2.74-1.12-4.36v-13.4h3.52v13.18c0,1.57.47,2.84,1.42,3.81.95.97,2.16,1.45,3.66,1.45s2.69-.48,3.63-1.45c.94-.97,1.41-2.23,1.41-3.81v-13.18h3.54v13.4c0,1.62-.37,3.07-1.12,4.36-.75,1.28-1.77,2.28-3.07,2.99Z"/>
    <path d="M348.46,66.43c1.55,0,3,.27,4.35.81s2.5,1.28,3.45,2.22,1.7,2.07,2.24,3.4.81,2.75.81,4.28c0,2.04-.47,3.88-1.4,5.51s-2.22,2.91-3.87,3.82-3.51,1.37-5.58,1.37h-7.55v-21.41h7.55ZM348.36,84.56c2.16,0,3.93-.7,5.3-2.1s2.06-3.18,2.06-5.34-.69-3.94-2.06-5.33-3.14-2.09-5.3-2.09h-3.93v14.85h3.93Z"/>
    <path d="M363.35,87.83v-21.41h3.52v21.41h-3.52Z"/>
    <path d="M389.35,86.79c-1.72.97-3.65,1.45-5.78,1.45s-4.06-.48-5.78-1.45-3.08-2.29-4.05-3.99-1.46-3.58-1.46-5.67.49-3.98,1.46-5.67,2.33-3.02,4.05-3.99,3.65-1.45,5.78-1.45,4.06.48,5.78,1.45,3.07,2.29,4.04,3.99,1.46,3.58,1.46,5.67-.49,3.98-1.46,5.67-2.32,3.02-4.04,3.99ZM383.58,84.85c2.21,0,4.05-.73,5.51-2.2s2.19-3.31,2.19-5.52-.73-4.05-2.19-5.52-3.3-2.2-5.51-2.2c-1.45,0-2.77.34-3.95,1.01s-2.1,1.6-2.77,2.78c-.67,1.18-1,2.49-1,3.93s.33,2.75,1,3.93c.67,1.18,1.59,2.1,2.77,2.78s2.5,1.01,3.95,1.01Z"/>
  </g>
  <circle class="cls-1" cx="339.9" cy="13.79" r="13.79"/>
  <polygon points="134.89 26.53 134.89 26.59 125.1 26.54 123.59 26.53 134.89 26.53"/>
</svg>